<svg width="291" height="46" viewBox="0 0 291 46" fill="none" xmlns="http://www.w3.org/2000/svg">
<g clip-path="url(#clip0_2_48)">
<path d="M23.7515 0.883662C25.3728 0.325401 27.8652 3.29448 29.3186 7.51533C30.0368 9.60111 30.3666 11.6022 30.3211 13.1604C32.572 12.3835 34.3011 11.5882 34.4795 11.5053C34.494 11.4735 34.5045 11.4507 34.5108 11.4372C34.7988 11.3292 35.002 11.4046 35.1188 11.5214C35.7962 12.1988 35.2292 15.0428 33.2704 17.4248C37.5029 20.3828 43.1758 22.5626 44.1615 22.9306C44.1736 22.9262 44.182 22.9231 44.1864 22.9215C44.5782 23.0902 44.848 23.342 44.9669 23.6872C45.5251 25.3085 42.556 27.801 38.3352 29.2544C36.303 29.9541 34.3511 30.2852 32.8111 30.2596C33.6385 32.6682 34.4948 34.4948 34.4948 34.4948C34.4948 34.4948 34.4904 34.4928 34.4818 34.4888C34.5869 34.7712 34.6249 34.9709 34.5096 35.0862C33.8322 35.7636 30.9286 35.2292 28.5465 33.2704C25.5833 37.5098 23.401 43.195 23.0383 44.167C23.0419 44.1767 23.0444 44.1834 23.0458 44.1871C22.8771 44.5787 22.6254 44.8482 22.2803 44.9671C20.659 45.5253 18.1665 42.5563 16.7131 38.3354C16.0147 36.307 15.6836 34.3587 15.7078 32.8199C13.4013 33.6138 11.6344 34.4314 11.5057 34.4913C11.5024 34.4987 11.4996 34.5049 11.4973 34.5098C11.2092 34.6178 10.995 34.6269 10.8781 34.5102C10.2008 33.8327 10.7417 30.9293 12.7004 28.5472C8.42854 25.5615 2.68897 23.3684 1.78241 23.031C1.76172 23.0386 1.74812 23.0438 1.74182 23.046C1.35008 22.8774 1.08034 22.6256 0.961484 22.2804C0.403228 20.6591 3.37231 18.1666 7.59315 16.7132C9.65016 16.005 11.6248 15.6743 13.1735 15.709C12.3493 13.3143 11.4995 11.501 11.4982 11.4983C11.4983 11.4983 11.5034 11.5006 11.513 11.5051C11.4053 11.2175 11.3963 11.0035 11.5129 10.8868C12.1909 10.2088 15.0349 10.7458 17.4181 12.7086C20.6714 8.05733 22.9851 1.66034 22.9851 1.66034C22.9851 1.66034 22.9854 1.66131 22.9861 1.66321C23.1547 1.27188 23.4065 1.00243 23.7515 0.883662ZM29.5317 32.5683C30.4194 32.8571 31.2542 33.1604 31.9766 33.4384C31.2567 33.1601 30.4232 32.8569 29.5317 32.5683ZM13.0226 28.7761C13.1967 28.9113 13.3681 29.0511 13.5359 29.1791C13.2366 30.1331 12.9145 31.0344 12.6165 31.8156C12.9162 31.0325 13.2408 30.1256 13.5427 29.1618C13.3725 29.0319 13.199 28.9034 13.0226 28.7761ZM30.2675 13.1789C30.2854 13.1728 30.3032 13.1668 30.3211 13.1606C30.3211 13.1605 30.3211 13.1604 30.3211 13.1604C30.3032 13.1665 30.2854 13.1728 30.2675 13.1789ZM17.4181 12.7086C17.3725 12.7737 17.3268 12.8386 17.2809 12.9031C17.3268 12.8386 17.3726 12.7738 17.4183 12.7087C17.4182 12.7086 17.4182 12.7086 17.4181 12.7086Z" fill="#323232"/>
<path d="M1.65971 22.9858C1.65971 22.9858 10.9719 19.6181 15.2946 15.2953C19.6174 10.9725 22.9851 1.66035 22.9851 1.66035C22.9851 1.66035 26.3528 10.9725 30.6756 15.2953C34.9984 19.6181 44.3105 22.9858 44.3105 22.9858C44.3105 22.9858 34.9984 26.3534 30.6756 30.6762C26.3528 34.999 22.9851 44.3112 22.9851 44.3112C22.9851 44.3112 19.6174 34.999 15.2946 30.6762C10.9719 26.3534 1.65971 22.9858 1.65971 22.9858Z" fill="#700FBE" fill-opacity="0.5"/>
<path d="M11.4983 11.4983C11.4983 11.4983 18.335 14.7034 22.9965 14.7034C27.6581 14.7034 34.4948 11.4983 34.4948 11.4983C34.4948 11.4983 31.2897 18.335 31.2897 22.9966C31.2897 27.6581 34.4948 34.4948 34.4948 34.4948C34.4948 34.4948 27.6581 31.2897 22.9965 31.2897C18.335 31.2897 11.4983 34.4948 11.4983 34.4948C11.4983 34.4948 14.7034 27.6581 14.7034 22.9966C14.7034 18.335 11.4983 11.4983 11.4983 11.4983Z" fill="#700FBE" fill-opacity="0.5"/>
<path d="M19.7143 23.5476V25.1905H26.8333M19.7143 23.5476V21.9048H26.8333M19.7143 23.5476H21.7186M23.1383 23.5476H26.8333" stroke="white" stroke-opacity="0.9" stroke-linecap="round" stroke-linejoin="round"/>
<path d="M11.513 10.8868C12.191 10.2088 15.0351 10.7458 17.4183 12.7087C17.22 12.9921 17.0182 13.2691 16.8133 13.5377C14.0273 12.6636 11.7204 11.6021 11.5134 11.5059C11.4054 11.2179 11.3962 11.0036 11.513 10.8868Z" fill="#591391" fill-opacity="0.5"/>
<path d="M28.5401 33.2651C30.9234 35.2282 33.8317 35.7642 34.5096 35.0862C34.6265 34.9694 34.5861 34.7662 34.478 34.4782C34.2712 34.3822 31.9012 33.3092 29.1147 32.4351C28.9099 32.7037 28.7383 32.9817 28.5401 33.2651Z" fill="#591391" fill-opacity="0.5"/>
<path d="M33.2653 17.4313C35.2284 15.048 35.7969 12.1994 35.1189 11.5214C35.0021 11.4046 34.7989 11.3292 34.5109 11.4372C34.4148 11.644 33.3095 14.0702 32.4352 16.8566C32.7039 17.0615 32.9819 17.233 33.2653 17.4313Z" fill="#591391" fill-opacity="0.5"/>
<path d="M12.7059 28.5406C10.7428 30.9239 10.2002 33.8321 10.8782 34.5102C10.995 34.6269 11.2093 34.6178 11.4973 34.5098C11.5934 34.303 12.685 31.9375 13.5593 29.1512C13.2906 28.9463 12.9893 28.7389 12.7059 28.5406Z" fill="#591391" fill-opacity="0.5"/>
<path d="M23.7515 0.883662C25.3728 0.325401 27.8653 3.29448 29.3187 7.51533C30.0369 9.60122 30.3667 11.6024 30.3211 13.1606C29.9472 13.2897 29.5588 13.4183 29.1608 13.5429C25.6354 8.92443 23.0498 1.83927 22.986 1.66368C23.1546 1.2721 23.4065 1.00248 23.7515 0.883662Z" fill="#591391" fill-opacity="0.5"/>
<path d="M22.2803 44.967C20.659 45.5253 18.1665 42.5562 16.7131 38.3354C15.9949 36.2496 15.6651 34.2483 15.7107 32.6902C16.0847 32.5611 16.473 32.4325 16.871 32.3078C20.3967 36.9267 22.9824 44.0127 23.0457 44.1871C22.8771 44.5787 22.6254 44.8482 22.2803 44.967ZM23.1116 44.016C23.0976 44.0567 23.0829 44.0963 23.0674 44.1349C23.078 44.106 23.0928 44.0661 23.1116 44.016Z" fill="#591391" fill-opacity="0.5"/>
<path d="M0.961484 22.2804C0.403228 20.6591 3.37231 18.1666 7.59316 16.7132C9.67877 15.9951 11.6798 15.6652 13.2379 15.7107C13.367 16.0848 13.4957 16.4733 13.6204 16.8716C9.0076 20.3925 1.93426 22.9761 1.74182 23.046C1.35008 22.8774 1.08034 22.6256 0.961484 22.2804ZM1.88823 23.1031C1.8621 23.0939 1.8364 23.0844 1.81119 23.0745C1.83244 23.0823 1.85819 23.0919 1.88823 23.1031Z" fill="#591391" fill-opacity="0.5"/>
<path d="M44.9669 23.6872C45.5252 25.3085 42.5561 27.801 38.3353 29.2544C36.2494 29.9726 34.2483 30.3024 32.6901 30.2569C32.561 29.8828 32.4324 29.4943 32.3076 29.0961C36.9243 25.5722 44.0053 22.9874 44.1865 22.9215C44.5783 23.0902 44.8481 23.342 44.9669 23.6872ZM44.0241 22.8588C44.0595 22.8711 44.0941 22.8839 44.1279 22.8974C44.1014 22.8876 44.0667 22.8747 44.0241 22.8588Z" fill="#591391" fill-opacity="0.5"/>
</g>
<g clip-path="url(#clip1_2_48)">
<path d="M56.8727 24.3321V32.7724H85.8486M56.8727 24.3321V15.8917H85.8486M56.8727 24.3321H65.0305M70.8091 24.3321H85.8486" stroke="white" stroke-width="4.36346" stroke-linecap="round" stroke-linejoin="round"/>
<path d="M137.618 24.3321V32.7724H166.594M137.618 24.3321V15.8917H166.594M137.618 24.3321H145.776M151.554 24.3321H166.594" stroke="white" stroke-width="4.36346" stroke-linecap="round" stroke-linejoin="round"/>
<path d="M247.335 15.8917H230.677H218.359V24.3321V32.7724H247.335V24.3321H241.738M233.186 24.3321H235.809" stroke="white" stroke-width="4.36346" stroke-linecap="round" stroke-linejoin="round"/>
<path d="M97.2436 32.7727V26.1558M126.22 32.7727V30.0333M111.732 15.8917H126.22V24.103M111.732 15.8917H97.2436V20.2254M111.732 15.8917V32.7727" stroke="white" stroke-width="4.36346" stroke-linecap="round" stroke-linejoin="round"/>
<path d="M177.988 32.7727V24.3322M177.988 24.3322V15.8917H184.831M177.988 24.3322H196.464M206.965 32.7727L200.293 27.4103L196.464 24.3322M196.464 24.3322H206.965V15.8917H190.876" stroke="white" stroke-width="4.36346" stroke-linecap="round" stroke-linejoin="round"/>
<path d="M258.733 32.7727L287.71 15.8917M258.733 15.8917L279.034 27.7179M287.71 32.7727L283.823 30.5085" stroke="#60189B" stroke-width="4.36346" stroke-linecap="round" stroke-linejoin="round"/>
</g>
<defs>
<clipPath id="clip0_2_48">
<rect width="46" height="46" fill="white"/>
</clipPath>
<clipPath id="clip1_2_48">
<rect width="235.855" height="21.7455" fill="white" transform="translate(54.3636 13.3818)"/>
</clipPath>
</defs>
</svg>
